HIERARCHY
ROOT Hips
{
  OFFSET 5.70366 102.999 -1.77653
  CHANNELS 6 Xposition Yposition Zposition Zrotation Xrotation Yrotation
  JOINT RightUpLeg
  {
    OFFSET -8.9458 -8.66707 0.101652
    CHANNELS 3 Zrotation Xrotation Yrotation
    JOINT RightLeg
    {
      OFFSET 0 -44.4227 1.3727
      CHANNELS 3 Zrotation Xrotation Yrotation
      JOINT RightFoot
      {
        OFFSET 0.253549 -42.0924 -1.46059
        CHANNELS 3 Zrotation Xrotation Yrotation
        JOINT RightToes
        {
          OFFSET 0.04 -4.41509 8.4991
          CHANNELS 3 Zrotation Xrotation Yrotation
          End Site
          {
            OFFSET -0.08 -0.137448 9.77979
          }
        }
      }
    }
  }
  JOINT Spine
  {
    OFFSET 0 11.8905 0
    CHANNELS 3 Zrotation Xrotation Yrotation
    JOINT Spine1
    {
      OFFSET 0 25.6574 0.127663
      CHANNELS 3 Zrotation Xrotation Yrotation
      JOINT HEad
      {
        OFFSET 0 8.73416 0.011341
        CHANNELS 3 Zrotation Xrotation Yrotation
        End Site
        {
          OFFSET -0.29 12.7742 2.51395
        }
      }
      JOINT LeftShoulder1
      {
        OFFSET 8.99 -0.362252 -0.22
        CHANNELS 3 Zrotation Xrotation Yrotation
        JOINT LeftArm
        {
          OFFSET 10.2827 -0.00337999 0.322123
          CHANNELS 3 Zrotation Xrotation Yrotation
          JOINT LeftForeArm
          {
            OFFSET 26.2597 0.099144 -1.42434
            CHANNELS 3 Zrotation Xrotation Yrotation
            JOINT LeftHand
            {
              OFFSET 22.0902 0.085362 1.02216
              CHANNELS 3 Zrotation Xrotation Yrotation
              End Site
              {
                OFFSET 13.419 -0.6 1.50291
              }
            }
          }
        }
      }
      JOINT RightShoulder
      {
        OFFSET -8.99 -0.362252 -0.22
        CHANNELS 3 Zrotation Xrotation Yrotation
        JOINT RightArm
        {
          OFFSET -10.2827 -0.00338 0.322123
          CHANNELS 3 Zrotation Xrotation Yrotation
          JOINT RightForeArm
          {
            OFFSET -26.364 0.099144 -1.42434
            CHANNELS 3 Zrotation Xrotation Yrotation
            JOINT RightHand
            {
              OFFSET -22.0324 0.085362 1.02216
              CHANNELS 3 Zrotation Xrotation Yrotation
              End Site
              {
                OFFSET -13.3284 -0.6 1.50291
              }
            }
          }
        }
      }
    }
  }
  JOINT LeftUpLeg
  {
    OFFSET 8.9458 -8.66707 0.101652
    CHANNELS 3 Zrotation Xrotation Yrotation
    JOINT LeftLeg
    {
      OFFSET 0 -44.4227 1.3727
      CHANNELS 3 Zrotation Xrotation Yrotation
      JOINT LeftFoot
      {
        OFFSET -0.253549 -42.0924 -1.46059
        CHANNELS 3 Zrotation Xrotation Yrotation
        JOINT LeftToes
        {
          OFFSET -0.04 -4.41509 8.4991
          CHANNELS 3 Zrotation Xrotation Yrotation
          End Site
          {
            OFFSET 0.08 -0.047448 9.77979
          }
        }
      }
    }
  }
}
MOTION
Frames:	14
Frame Time:	0.0416667
184.801 100.12 -17.3224 3.66393 1.71938 -85.3204 3.97756 -8.63462 -0.445546 -0.893252 22.748 -4.91332 -5.5769 -16.2818 -0.658422 0.0462048 0.000530889 0.662642 2.39616 5.27286 0.347818 0.880445 -1.00603 0.473622 6.24697 7.34655 -2.74786 -28.1665 -2.35425 10.5385 -49.8271 -12.9567 -15.4101 -3.30573 41.1086 -14.4493 2.29188 9.71411 -9.44709 41.2812 0.901494 -2.26576 34.7009 -14.1755 4.16464 -1.0907 33.0204 20.0894 -0.942114 9.88969 4.81489 5.26208 -23.3465 0.844091 0.973039 45.3113 10.9996 1.48856 -6.65461 0.0096603 -1.33985e-009 8.75226e-006 -1.4644e-008 
182.951 100.106 -17.3429 3.56022 1.31937 -84.9811 3.4413 -6.81287 -1.2289 -0.763266 21.8435 -4.49798 -5.07927 -16.8898 -0.652219 0.0462048 0.000530889 0.662642 3.12987 5.68905 0.992313 -0.248825 -1.10705 1.29446 6.41299 6.97259 -3.45839 -28.7447 -2.52797 10.9222 -48.4107 -20.295 -11.5188 -3.47252 47.8581 -12.0856 1.88998 9.77376 -8.38179 40.9256 0.953621 -2.14455 34.3633 -12.3624 6.07128 -1.87488 29.1385 25.0331 -1.489 9.83535 6.33359 4.1874 -26.0771 0.612985 0.744206 44.85 6.01596 -1.79847 -7.16134 0.0351944 -1.33985e-009 8.75226e-006 -1.4644e-008 
180.873 100.001 -17.2305 3.45018 0.880423 -84.5849 2.82934 -4.83226 -2.06129 -0.599243 21.0012 -4.15976 -4.86502 -17.5248 -0.666932 0.0462048 0.000530889 0.662642 3.98759 5.99283 1.61448 -1.54527 -1.11188 2.1041 6.41689 6.54889 -4.07737 -29.2067 -2.71311 11.3493 -45.007 -25.5331 -6.76879 -3.55777 51.9442 -10.1941 1.59418 9.81446 -7.34589 40.2709 1.05739 -1.8995 34.283 -15.0899 7.69118 -2.90235 29.1096 31.199 -2.14086 9.74892 8.38026 2.63874 -28.237 0.0405092 0.78375 41.4408 8.30997 -2.23209 -7.29421 0.0377879 -1.33985e-009 8.75226e-006 -1.4644e-008 
178.598 99.799 -17.0266 3.29521 0.513965 -84.2727 2.29171 -2.65008 -2.76034 -0.414539 20.1121 -3.87664 -4.69485 -18.4458 -0.697525 0.0462048 0.000530889 0.662642 4.65129 6.42774 2.25623 -2.57889 -1.26838 2.87938 5.9673 6.35257 -4.76825 -29.5875 -2.93024 11.8715 -40.4526 -29.033 -1.52959 -3.66819 53.9714 -8.40552 1.66676 9.81063 -6.63701 39.606 1.16526 -1.63803 33.8663 -18.1069 9.0067 -4.18303 29.1161 38.7445 -2.94923 9.62427 10.0586 1.17295 -29.7813 -0.25752 0.945794 36.2155 13.4192 -1.31162 -7.11292 0.0347023 -1.33985e-009 8.75226e-006 -1.4644e-008 
176.129 99.4873 -16.733 3.03297 0.296765 -83.6929 2.00616 -0.31032 -3.26873 -0.275426 19.4262 -4.06986 -4.4933 -19.3545 -0.721772 0.0462048 0.000530889 0.662642 5.01014 7.08377 2.67735 -3.08143 -1.51793 3.36372 5.31303 6.16691 -5.48533 -29.6838 -3.10996 12.3467 -35.6961 -31.2528 3.83899 -3.16066 54.3793 -7.27829 1.60944 9.81783 -6.0019 38.9159 1.20417 -1.51893 33.3857 -21.023 10.4257 -5.26305 28.557 47.0974 -3.41768 9.54244 10.9626 -0.0741623 -30.8317 -0.400889 0.996447 30.6552 15.9783 -1.64946 -6.74232 0.0386325 -1.33985e-009 8.75226e-006 -1.4644e-008 
173.395 99.0486 -16.3322 2.52517 0.199783 -83.0198 1.95864 2.21914 -3.69993 -0.26435 19.2777 -4.36449 -4.06483 -20.1275 -0.710974 0.0462048 0.000530889 0.662642 5.25897 7.84465 2.83308 -3.41551 -1.66841 3.59141 4.84219 5.72702 -5.99028 -29.304 -3.13164 12.497 -31.2407 -32.7607 9.13408 -2.26936 53.9413 -6.75448 1.42509 9.84054 -5.22859 38.1275 1.21775 -1.44741 33.6406 -23.8481 12.3234 -5.68786 27.643 54.3445 -3.60351 9.49737 11.7772 -1.2006 -31.4737 -0.802018 0.947756 26.328 15.7883 -1.91507 -6.19527 0.0474438 -1.33985e-009 8.75226e-006 -1.4644e-008 
170.318 98.4777 -15.8051 1.88756 0.305548 -82.9541 2.01377 4.70523 -4.03927 -0.386083 19.7808 -3.95363 -3.05705 -21.0735 -0.631045 0.0462048 0.000530889 0.662642 5.54829 8.41572 3.01898 -3.79308 -1.7828 3.87177 4.56799 5.50995 -6.28939 -28.8286 -3.06366 12.4207 -27.3722 -33.8238 13.8367 -1.66586 53.5194 -5.89593 1.39009 9.84651 -4.49347 37.3496 1.25215 -1.32659 34.6232 -25.9742 14.5092 -5.61137 26.9112 58.8225 -3.91665 9.43569 12.3605 -1.8536 -31.8043 -1.485 0.904411 24.5445 15.0522 -0.535603 -4.52481 0.0257373 -1.33985e-009 8.75226e-006 -1.4644e-008 
166.839 97.853 -15.1199 1.5008 0.554336 -83.6998 1.95406 6.66857 -4.15354 -0.737235 21.0999 -2.80286 -1.81915 -21.5554 -0.493071 0.0462048 0.000530889 0.662642 5.77283 8.322 3.34122 -4.1542 -1.82587 4.27652 4.42741 5.94972 -6.46378 -28.7103 -3.07589 12.4839 -24.2034 -34.6775 17.383 -1.26574 53.5291 -4.76392 1.1966 9.86422 -3.70102 36.739 1.26971 -1.25079 35.8584 -26.8618 16.4925 -5.59297 26.7102 60.1779 -4.18347 9.38949 12.5411 -2.01581 -31.8601 -2.04078 0.913748 25.8159 15.0167 2.21916 -1.58779 -0.126179 -1.33985e-009 8.75226e-006 -1.4644e-008 
162.965 97.344 -14.2992 1.32555 0.560885 -84.6764 1.59727 8.28281 -3.40266 -1.31222 23.1052 -1.91345 0.361509 -21.0376 -0.216151 0.0462048 0.000530889 0.662642 5.65517 7.7654 3.55879 -4.70004 -1.74139 4.6114 4.54859 6.68015 -6.5918 -28.8963 -3.1681 12.699 -21.9636 -35.2395 19.3888 -1.08212 53.7691 -3.84247 0.927083 9.88492 -2.8756 36.6688 1.2239 -1.35271 36.7626 -26.6253 17.2731 -5.63479 26.8958 59.0234 -4.18448 9.38441 12.7166 -2.22269 -31.3959 -1.86325 0.952799 29.1923 15.3363 4.91756 -0.0414789 -0.341483 -1.33985e-009 8.75226e-006 -1.4644e-008 
158.978 97.128 -13.4436 1.05515 0.233936 -85.4137 0.843518 9.20557 -0.285717 -0.893651 26.5157 -3.57223 4.5736 -19.3457 0.230798 0.0462048 0.000530889 0.662642 4.94186 7.6257 3.53686 -5.36404 -1.75008 4.71715 4.75106 6.94307 -6.71368 -29.4222 -3.29679 12.9276 -21.3735 -35.5615 19.3634 -1.2919 54.2584 -3.05884 1.0385 9.87718 -2.43415 37.2245 1.16182 -1.52606 36.8303 -25.4983 15.9824 -5.26562 27.1393 55.8163 -4.03754 9.40553 12.7928 -2.54096 -30.204 -0.703617 0.98278 32.7166 15.2263 6.32864 -2.10664 -0.309966 -1.33985e-009 8.75226e-006 -1.4644e-008 
155.178 97.3022 -12.6028 0.784281 -0.148299 -86.1506 -0.313762 7.2974 0.436143 -0.552817 33.9606 -3.75984 7.40702 -13.4315 0.173214 0.0462048 0.000530889 0.662642 3.59302 7.91482 3.36981 -5.45239 -1.81134 4.48988 4.54207 6.54456 -6.47547 -30.2475 -3.44822 13.1353 -23.4225 -35.9072 17.1059 -1.55532 54.8544 -2.49754 1.22638 9.86442 -2.47657 37.7885 1.15174 -1.5782 36.5695 -23.2925 13.6255 -4.45033 27.4114 50.1839 -3.57954 9.48575 12.4422 -2.66277 -28.1734 1.14158 0.987699 34.5813 14.7015 6.83825 -5.5421 -0.109329 -1.33985e-009 8.75226e-006 -1.4644e-008 
151.67 97.6187 -11.8115 0.608442 -0.786504 -86.9798 -1.85364 1.58517 -0.146815 -0.622664 45.9251 -3.16094 5.78926 -2.09678 -0.397885 0.0462048 0.000530889 0.662642 1.33222 8.24714 3.04468 -4.87164 -1.59889 3.83641 3.9989 6.02484 -5.56471 -30.7468 -3.45985 13.0415 -28.55 -36.0251 12.5758 -1.97308 55.6697 -1.96581 1.17658 9.8674 -2.74508 38.2316 1.14256 -1.62099 36.6112 -19.8997 11.6783 -3.30452 27.6329 42.0805 -2.88974 9.60631 11.6134 -3.17905 -25.5169 2.6607 0.987772 34.7981 14.4789 7.34792 -7.95666 0.0521102 -1.33985e-009 8.75226e-006 -1.4644e-008 
148.334 97.8529 -11.1021 0.366948 -1.61772 -87.7822 -3.37283 -5.7062 -0.212025 -0.768378 57.7939 -2.38677 2.36798 5.757 -0.362446 0.0462048 0.000530889 0.662642 -1.35064 8.7109 2.58597 -4.19314 -1.44517 2.88157 3.75211 5.97286 -4.30208 -30.79 -3.28083 12.5512 -35.6365 -35.3329 5.63913 -3.28594 57.9353 -0.891507 1.28199 9.85924 -3.07144 39.1348 1.06161 -1.84172 36.6961 -15.9632 9.85283 -1.72041 27.1785 32.4833 -2.34772 9.70468 10.0875 -4.32595 -22.7371 2.88408 1.02822 34.6606 15.2383 7.18277 -10.0713 0.198257 -1.33985e-009 8.75226e-006 -1.4644e-008 
144.769 98.523 -10.4109 0.205346 -1.84803 -88.7384 -3.78986 -12.7129 0.359796 -0.940631 64.796 -1.93737 0.0348341 5.27658 -0.0944905 0.0462048 0.000530889 0.662642 -2.93537 8.95136 1.97454 -3.42212 -1.7847 1.95187 4.00907 6.52392 -3.08055 -30.8558 -3.1323 12.1389 -42.6092 -33.3729 -2.49497 -4.84041 60.3361 -0.5014 1.70071 9.82452 -3.76052 40.288 0.945067 -2.13951 37.0172 -14.1782 7.45956 -0.353409 27.6554 22.6261 -1.61611 9.81658 7.48484 -5.16736 -19.1859 1.92643 1.0819 32.9109 17.0921 6.13359 -11.656 0.272351 -1.33985e-009 8.75226e-006 -1.4644e-008 
